<?xml version="1.0" encoding="utf-8"?>
<!-- Generator: Adobe Illustrator 19.0.0, SVG Export Plug-In . SVG Version: 6.00 Build 0)  -->
<svg version="1.1" id="star" xmlns="http://www.w3.org/2000/svg" xmlns:xlink="http://www.w3.org/1999/xlink" x="0px" y="0px"
	 viewBox="-200 376.108 210 41.892" enable-background="new -200 376.108 210 41.892" xml:space="preserve">
<polygon id="XMLID_15_" fill="#FF0C0C" points="-178.846,388.982 -176.223,394.296 -170.358,395.148 -174.602,399.285 
	-173.6,405.126 -178.846,402.368 -184.091,405.126 -183.088,399.285 -187.333,395.148 -181.467,394.296 "/>
<polygon id="XMLID_1_" fill="#FF0C0C" points="-136.628,388.982 -134.005,394.296 -128.141,395.148 -132.384,399.285 
	-131.383,405.126 -136.628,402.368 -141.874,405.126 -140.871,399.285 -145.115,395.148 -139.251,394.296 "/>
<polygon id="XMLID_2_" fill="#FF0C0C" points="-94.41,388.982 -91.787,394.296 -85.923,395.148 -90.167,399.285 -89.164,405.126 
	-94.41,402.368 -99.656,405.126 -98.654,399.285 -102.897,395.148 -97.033,394.296"/>
	</svg>